<svg version="1.1" viewBox="0.0 0.0 240.0 80.0" fill="none" stroke="none" stroke-linecap="square" stroke-miterlimit="10" xmlns:xlink="http://www.w3.org/1999/xlink" xmlns="http://www.w3.org/2000/svg"><clipPath id="p.0"><path d="m0 0l240.0 0l0 80.0l-240.0 0l0 -80.0z" clip-rule="nonzero"/></clipPath><g clip-path="url(#p.0)"><path fill="#000000" fill-opacity="0.0" d="m0 0l240.0 0l0 80.0l-240.0 0z" fill-rule="evenodd"/><path fill="#000000" fill-opacity="0.0" d="m-105.10236 -51.53018l75.71654 0l0 80.0l-75.71654 0z" fill-rule="evenodd"/><path fill="#4285f4" d="m-84.87561 1.909815l0 -23.5625l-8.796875 0l0 -3.15625l21.171875 0l0 3.15625l-8.828125 0l0 23.5625l-3.546875 0zm14.166092 0l0 -19.359375l2.953125 0l0 2.9375q1.125 -2.0625 2.078125 -2.71875q0.96875 -0.65625 2.109375 -0.65625q1.671875 0 3.375 1.0625l-1.125 3.046875q-1.203125 -0.71875 -2.40625 -0.71875q-1.078125 0 -1.9375 0.65625q-0.859375 0.640625 -1.21875 1.78125q-0.546875 1.75 -0.546875 3.828125l0 10.140625l-3.28125 0zm25.102432 -2.390625q-1.828125 1.546875 -3.515625 2.1875q-1.6875 0.6406249 -3.609375 0.6406249q-3.1875 0 -4.90625 -1.546875q-1.71875 -1.5625 -1.71875 -4.0q0 -1.421875 0.640625 -2.59375q0.65625 -1.171875 1.703125 -1.875q1.046875 -0.71875 2.359375 -1.078125q0.96875 -0.265625 2.921875 -0.5q3.96875 -0.46875 5.84375 -1.125q0.03125 -0.671875 0.03125 -0.859375q0 -2.0 -0.9375 -2.828125q-1.25 -1.109375 -3.734375 -1.109375q-2.3125 0 -3.421875 0.8125q-1.09375 0.8125 -1.625 2.875l-3.21875 -0.4375q0.4375 -2.0625 1.4375 -3.328125q1.015625 -1.265625 2.90625 -1.953125q1.890625 -0.6875 4.390625 -0.6875q2.484375 0 4.03125 0.59375q1.546875 0.578125 2.28125 1.46875q0.734375 0.875 1.015625 2.21875q0.171875 0.84375 0.171875 3.03125l0 4.375q0 4.578125 0.203125 5.796875q0.21875 1.203125 0.828125 2.3125l-3.421875 0q-0.515625 -1.015625 -0.65625 -2.390625zm-0.28125 -7.328125q-1.78125 0.734375 -5.359375 1.25q-2.015625 0.28125 -2.859375 0.65625q-0.828125 0.359375 -1.296875 1.0625q-0.453125 0.703125 -0.453125 1.5625q0 1.3125001 0.984375 2.1875q1.0 0.87499994 2.921875 0.87499994q1.890625 0 3.359375 -0.82812494q1.484375 -0.84375 2.1875 -2.28125q0.515625 -1.109375 0.515625 -3.28125l0 -1.203125z" fill-rule="nonzero"/><g filter="url(#shadowFilter-p.1)"><use xlink:href="#p.1" transform="matrix(1.0 0.0 0.0 1.0 -1.4142136482939631 1.414213648293962)"/></g><defs><filter id="shadowFilter-p.1" filterUnits="userSpaceOnUse"><feGaussianBlur in="SourceAlpha" stdDeviation="0.5" result="blur"/><feComponentTransfer in="blur" color-interpolation-filters="sRGB"><feFuncR type="linear" slope="0" intercept="0.0"/><feFuncG type="linear" slope="0" intercept="0.0"/><feFuncB type="linear" slope="0" intercept="0.0"/><feFuncA type="linear" slope="0.5" intercept="0"/></feComponentTransfer></filter></defs><g id="p.1"><path fill="#000000" fill-opacity="0.0" d="m0 0l240.0 0l0 80.0l-240.0 0z" fill-rule="evenodd"/><path fill="#4285f4" d="m24.757874 53.44l0 -23.5625l-8.796875 0l0 -3.15625l21.171875 0l0 3.15625l-8.828125 0l0 23.5625l-3.546875 0zm14.166092 0l0 -19.359375l2.953125 0l0 2.9375q1.125 -2.0625 2.078125 -2.71875q0.96875 -0.65625 2.109375 -0.65625q1.671875 0 3.375 1.0625l-1.125 3.046875q-1.203125 -0.71875 -2.40625 -0.71875q-1.078125 0 -1.9375 0.65625q-0.859375 0.640625 -1.21875 1.78125q-0.546875 1.75 -0.546875 3.828125l0 10.140625l-3.28125 0zm25.102432 -2.390625q-1.828125 1.546875 -3.515625 2.1875q-1.6875 0.640625 -3.609375 0.640625q-3.1875 0 -4.90625 -1.546875q-1.71875 -1.5625 -1.71875 -4.0q0 -1.421875 0.640625 -2.59375q0.65625 -1.171875 1.703125 -1.875q1.046875 -0.71875 2.359375 -1.078125q0.96875 -0.265625 2.921875 -0.5q3.96875 -0.46875 5.84375 -1.125q0.03125 -0.671875 0.03125 -0.859375q0 -2.0 -0.9375 -2.828125q-1.25 -1.109375 -3.734375 -1.109375q-2.3125 0 -3.421875 0.8125q-1.09375 0.8125 -1.625 2.875l-3.21875 -0.4375q0.4375 -2.0625 1.4375 -3.328125q1.015625 -1.265625 2.90625 -1.953125q1.890625 -0.6875 4.390625 -0.6875q2.484375 0 4.03125 0.59375q1.546875 0.578125 2.28125 1.46875q0.734375 0.875 1.015625 2.21875q0.171875 0.84375 0.171875 3.03125l0 4.375q0 4.578125 0.203125 5.796875q0.21875 1.203125 0.828125 2.3125l-3.421875 0q-0.515625 -1.015625 -0.65625 -2.390625zm-0.28125 -7.328125q-1.78125 0.734375 -5.359375 1.25q-2.015625 0.28125 -2.859375 0.65625q-0.828125 0.359375 -1.296875 1.0625q-0.453125 0.703125 -0.453125 1.5625q0 1.3125 0.984375 2.1875q1.0 0.875 2.921875 0.875q1.890625 0 3.359375 -0.828125q1.484375 -0.84375 2.1875 -2.28125q0.515625 -1.109375 0.515625 -3.28125l0 -1.203125z" fill-rule="nonzero"/><path fill="#ea4335" d="m95.157486 46.34625l3.21875 0.421875q-0.515625 3.34375 -2.703125 5.234375q-2.171875 1.875 -5.34375 1.875q-3.984375 0 -6.40625 -2.59375q-2.40625 -2.59375 -2.40625 -7.453125q0 -3.125 1.03125 -5.46875q1.046875 -2.359375 3.171875 -3.53125q2.125 -1.1875 4.625 -1.1875q3.15625 0 5.15625 1.59375q2.0 1.59375 2.578125 4.53125l-3.203125 0.5q-0.453125 -1.953125 -1.609375 -2.9375q-1.15625 -0.984375 -2.796875 -0.984375q-2.484375 0 -4.03125 1.78125q-1.546875 1.765625 -1.546875 5.609375q0 3.90625 1.484375 5.671875q1.5 1.765625 3.90625 1.765625q1.9375 0 3.234375 -1.171875q1.296875 -1.1875 1.640625 -3.65625zm23.914062 -8.453125l0 -3.8125l3.515625 0l0 3.015625q0 2.859375 -0.65625 3.984375q-1.671875 2.921875 -5.125 3.28125l0 9.078125l-2.9375 0l0 -2.84375q-2.25 3.28125 -6.140625 3.28125q-1.6875 0 -3.171875 -0.640625q-1.484375 -0.65625 -2.21875 -1.65625q-0.734375 -1.0 -1.015625 -2.4375q-0.203125 -0.984375 -0.203125 -3.0625l0 -12.0l3.28125 0l0 10.734375q0 2.609375 0.203125 3.46875q0.625 2.765625 3.78125 2.765625q1.515625 0 2.796875 -0.765625q1.296875 -0.765625 1.8125 -2.046875q0.53125 -1.296875 0.53125 -3.78125l0 -10.375l3.28125 0l0 8.890625q2.3125 -0.390625 3.46875 -2.15625q0.5 -0.765625 0.5 -2.921875l-1.703125 0zm-12.09375 -6.21875l2.421875 -5.09375l4.296875 0l-4.0 5.09375l-2.71875 0zm31.879333 21.765625l0 -2.84375q-2.25 3.28125 -6.140625 3.28125q-1.703125 0 -3.203125 -0.65625q-1.484375 -0.65625 -2.203125 -1.640625q-0.71875 -1.0 -1.0 -2.4375q-0.203125 -0.96875 -0.203125 -3.0625l0 -12.0l3.28125 0l0 10.734375q0 2.578125 0.203125 3.46875q0.296875 1.296875 1.296875 2.03125q1.015625 0.734375 2.484375 0.734375q1.484375 0 2.765625 -0.75q1.296875 -0.765625 1.828125 -2.0625q0.546875 -1.296875 0.546875 -3.78125l0 -10.375l3.28125 0l0 19.359375l-2.9375 0z" fill-rule="nonzero"/><path fill="#fbbc05" d="m168.25385 53.44l-3.15625 0l0 -20.15625q-1.140625 1.078125 -3.0 2.171875q-1.859375 1.09375 -3.328125 1.640625l0 -3.0625q2.65625 -1.25 4.640625 -3.015625q1.984375 -1.78125 2.8125 -3.453125l2.03125 0l0 25.875z" fill-rule="nonzero"/><path fill="#34a853" d="m186.37103 40.736874q0 -4.578125 0.9375 -7.359375q0.9375 -2.796875 2.78125 -4.296875q1.859375 -1.515625 4.671875 -1.515625q2.078125 0 3.640625 0.84375q1.5625 0.828125 2.578125 2.40625q1.03125 1.5625 1.609375 3.828125q0.578125 2.25 0.578125 6.09375q0 4.53125 -0.9375 7.3125q-0.921875 2.78125 -2.78125 4.3125q-1.84375 1.515625 -4.6875 1.515625q-3.71875 0 -5.84375 -2.671875q-2.546875 -3.21875 -2.546875 -10.46875zm3.25 0q0 6.34375 1.484375 8.453125q1.484375 2.09375 3.65625 2.09375q2.1875 0 3.671875 -2.109375q1.484375 -2.109375 1.484375 -8.4375q0 -6.375 -1.484375 -8.453125q-1.484375 -2.09375 -3.703125 -2.09375q-2.171875 0 -3.484375 1.84375q-1.625 2.34375 -1.625 8.703125zm16.97461 -9.6875l0 -3.046875l16.6875 0l0 2.46875q-2.46875 2.609375 -4.890625 6.953125q-2.40625 4.34375 -3.71875 8.9375q-0.953125 3.234375 -1.21875 7.078125l-3.25 0q0.046875 -3.046875 1.1875 -7.34375q1.140625 -4.3125 3.28125 -8.3125q2.140625 -4.0 4.546875 -6.734375l-12.625 0z" fill-rule="nonzero"/><a xlink:href="https://www.google.com/url?q=https://script.google.com/macros/s/AKfycbwJlVxJ-6TYPlu_09pMiP7mKm9Ak6iXU_Vl_k0loLeIRW4ErpsgUF2TbPWLdO7d-9dJqg/exec&amp;sa=D&amp;source=editors&amp;ust=1752321325760727&amp;usg=AOvVaw3meJ7eKQUbLHnzjp01-a8V" target="_blank" rel="noreferrer"><path fill="transparent" fill-opacity="0" d="m0 0l240.0 0l0 80.0l-240.0 0z" fill-rule="evenodd"/></a></g><path fill="#000000" fill-opacity="0.0" d="m161.73228 0l35.433075 0l0 84.031494l-35.433075 0z" fill-rule="evenodd"/><path fill="#fbbc05" d="m170.73228 60.856247l11.0625 -39.484375l3.75 0l-11.03125 39.484375l-3.78125 0z" fill-rule="nonzero"/></g></svg>